<?xml version="1.0" encoding="UTF-8" standalone="no"?>
<!-- Created with Inkscape (http://www.inkscape.org/) -->

<svg
   width="50mm"
   height="50mm"
   viewBox="0 0 41.666667 41.666667"
   version="1.1"
   id="svg1"
   inkscape:version="1.3.1 (91b66b0783, 2023-11-16)"
   sodipodi:docname="Logotip_Instagram_Original.svg"
   xmlns:inkscape="http://www.inkscape.org/namespaces/inkscape"
   xmlns:sodipodi="http://sodipodi.sourceforge.net/DTD/sodipodi-0.dtd"
   xmlns="http://www.w3.org/2000/svg"
   xmlns:svg="http://www.w3.org/2000/svg">
  <sodipodi:namedview
     id="namedview1"
     pagecolor="#ffffff"
     bordercolor="#000000"
     borderopacity="0.25"
     inkscape:showpageshadow="2"
     inkscape:pageopacity="0.0"
     inkscape:pagecheckerboard="0"
     inkscape:deskcolor="#d1d1d1"
     inkscape:document-units="mm"
     inkscape:zoom="2.8044052"
     inkscape:cx="88.967172"
     inkscape:cy="76.843389"
     inkscape:window-width="1920"
     inkscape:window-height="1001"
     inkscape:window-x="-9"
     inkscape:window-y="502"
     inkscape:window-maximized="1"
     inkscape:current-layer="layer1" />
  <defs
     id="defs1">
    <clipPath
       id="clipPath278"
       clipPathUnits="userSpaceOnUse">
      <path
         id="path276"
         d="m 3412.04,2919.11 c 0,-97.7 -79.2,-176.91 -176.9,-176.91 -97.71,0 -176.91,79.21 -176.91,176.91 0,97.71 79.2,176.91 176.91,176.91 97.7,0 176.9,-79.2 176.9,-176.91 z" />
    </clipPath>
    <linearGradient
       id="linearGradient294"
       spreadMethod="pad"
       gradientTransform="matrix(353.746,-298.772,-298.772,-353.746,3069.42,3059.07)"
       gradientUnits="userSpaceOnUse"
       y2="0"
       x2="1"
       y1="0"
       x1="0">
      <stop
         id="stop280"
         offset="0"
         style="stop-color:#83FA6B;stop-opacity:1;" />
      <stop
         id="stop282"
         offset="0.0011048"
         style="stop-color:#706BFA;stop-opacity:1;" />
      <stop
         id="stop284"
         offset="0.20935699"
         style="stop-color:#FA6BD9;stop-opacity:1;" />
      <stop
         id="stop286"
         offset="0.37645999"
         style="stop-color:#FAC16B;stop-opacity:1;" />
      <stop
         id="stop288"
         offset="0.52381498"
         style="stop-color:#FA966B;stop-opacity:1;" />
      <stop
         id="stop290"
         offset="0.739443"
         style="stop-color:#A4FA6B;stop-opacity:1;" />
      <stop
         id="stop292"
         offset="1"
         style="stop-color:#796BFA;stop-opacity:1;" />
    </linearGradient>
    <clipPath
       id="clipPath278-7"
       clipPathUnits="userSpaceOnUse">
      <path
         id="path276-1"
         d="m 3412.04,2919.11 c 0,-97.7 -79.2,-176.91 -176.9,-176.91 -97.71,0 -176.91,79.21 -176.91,176.91 0,97.71 79.2,176.91 176.91,176.91 97.7,0 176.9,-79.2 176.9,-176.91 z" />
    </clipPath>
    <linearGradient
       id="linearGradient294-7"
       spreadMethod="pad"
       gradientTransform="matrix(353.746,-298.772,-298.772,-353.746,3069.42,3059.07)"
       gradientUnits="userSpaceOnUse"
       y2="0"
       x2="1"
       y1="0"
       x1="0">
      <stop
         id="stop280-2"
         offset="0"
         style="stop-opacity:1;stop-color:#f9d76c" />
      <stop
         id="stop282-9"
         offset="0.0011048"
         style="stop-opacity:1;stop-color:#f9d76c" />
      <stop
         id="stop284-6"
         offset="0.209357"
         style="stop-opacity:1;stop-color:#f9a837" />
      <stop
         id="stop286-3"
         offset="0.37646"
         style="stop-opacity:1;stop-color:#f03d74" />
      <stop
         id="stop288-8"
         offset="0.523815"
         style="stop-opacity:1;stop-color:#e62299" />
      <stop
         id="stop290-1"
         offset="0.739443"
         style="stop-opacity:1;stop-color:#6f3ea2" />
      <stop
         id="stop292-3"
         offset="1"
         style="stop-opacity:1;stop-color:#4850ab" />
    </linearGradient>
  </defs>
  <g
     inkscape:label="Capa 1"
     inkscape:groupmode="layer"
     id="layer1">
    <path
       id="path298"
       style="fill:#ffffff;fill-opacity:1;fill-rule:nonzero;stroke:none;stroke-width:0.0699143"
       d="m 24.672658,15.4371 c -0.477813,0 -0.864614,0.374661 -0.864614,0.835942 0,0.461967 0.386801,0.835941 0.864614,0.835941 0.477814,0 0.864615,-0.373974 0.864615,-0.835941 0,-0.461281 -0.386801,-0.835942 -0.864615,-0.835942" />
    <path
       id="path300"
       style="fill:#ffffff;fill-opacity:1;fill-rule:nonzero;stroke:none;stroke-width:0.0699143"
       d="m 20.828824,22.270376 c -1.283412,0 -2.326494,-1.009181 -2.326494,-2.249345 0,-1.240163 1.043082,-2.249344 2.326494,-2.249344 1.282699,0 2.325782,1.009181 2.325782,2.249344 0,1.240164 -1.043083,2.249345 -2.325782,2.249345 z m 0,-5.760851 c -2.002975,0 -3.632657,1.574953 -3.632657,3.511506 0,1.936553 1.629682,3.511507 3.632657,3.511507 2.002265,0 3.631947,-1.574954 3.631947,-3.511507 0,-1.936553 -1.629682,-3.511506 -3.631947,-3.511506" />
    <path
       id="path302"
       style="fill:#ffffff;fill-opacity:1;fill-rule:nonzero;stroke:none;stroke-width:0.0699143"
       d="m 17.823297,14.232683 c -1.677323,0 -3.041793,1.319221 -3.041793,2.941608 v 5.693481 c 0,1.6217 1.36447,2.941608 3.041793,2.941608 h 5.888758 c 1.678034,0 3.042502,-1.319908 3.042502,-2.941608 v -5.693481 c 0,-1.622387 -1.364468,-2.941608 -3.042502,-2.941608 z m 5.888758,12.917918 h -5.888758 c -2.442393,0 -4.429725,-1.92143 -4.429725,-4.282829 v -5.693481 c 0,-2.361398 1.987332,-4.282827 4.429725,-4.282827 h 5.888758 c 2.442392,0 4.430436,1.921429 4.430436,4.282827 v 5.693481 c 0,2.361399 -1.988044,4.282829 -4.430436,4.282829" />
    <g
       id="g272"
       transform="matrix(0.05984139,0,0,-0.05984054,-172.92941,194.30221)">
      <g
         clip-path="url(#clipPath278-7)"
         id="g274">
        <path
           id="path296"
           style="fill:url(#linearGradient294-7);fill-opacity:1;fill-rule:nonzero;stroke:none"
           d="m 3412.04,2919.11 c 0,-97.7 -79.2,-176.91 -176.9,-176.91 -97.71,0 -176.91,79.21 -176.91,176.91 0,97.71 79.2,176.91 176.91,176.91 97.7,0 176.9,-79.2 176.9,-176.91" />
      </g>
    </g>
    <path
       id="path298-7"
       style="fill:#ffffff;fill-opacity:1;fill-rule:nonzero;stroke:none;stroke-width:0.059841"
       d="m 23.951764,15.615994 c -0.402134,0 -0.727671,0.326128 -0.727671,0.727659 0,0.402129 0.325537,0.727662 0.727671,0.727662 0.402134,0 0.727672,-0.325533 0.727672,-0.727662 0,-0.401531 -0.325538,-0.727659 -0.727672,-0.727659" />
    <path
       id="path300-0"
       style="fill:#ffffff;fill-opacity:1;fill-rule:nonzero;stroke:none;stroke-width:0.059841"
       d="m 20.716738,21.56414 c -1.080136,0 -1.95801,-0.87846 -1.95801,-1.957981 0,-1.079525 0.877874,-1.957982 1.95801,-1.957982 1.07954,0 1.957413,0.878457 1.957413,1.957982 0,1.079521 -0.877873,1.957981 -1.957413,1.957981 z m 0,-5.014635 c -1.68573,0 -3.057296,1.370946 -3.057296,3.056654 0,1.685707 1.371566,3.056653 3.057296,3.056653 1.685134,0 3.056699,-1.370946 3.056699,-3.056653 0,-1.685708 -1.371565,-3.056654 -3.056699,-3.056654" />
    <path
       id="path302-4"
       style="fill:#ffffff;fill-opacity:1;fill-rule:nonzero;stroke:none;stroke-width:0.059841"
       d="m 18.187243,14.567586 c -1.411659,0 -2.560015,1.148339 -2.560015,2.560577 v 4.955992 c 0,1.411639 1.148356,2.560576 2.560015,2.560576 h 4.956063 c 1.412259,0 2.560614,-1.148937 2.560614,-2.560576 v -4.955992 c 0,-1.412238 -1.148355,-2.560577 -2.560614,-2.560577 z m 4.956063,11.244634 h -4.956063 c -2.055553,0 -3.728119,-1.672542 -3.728119,-3.728065 v -4.955992 c 0,-2.055524 1.672566,-3.728066 3.728119,-3.728066 h 4.956063 c 2.055553,0 3.728718,1.672542 3.728718,3.728066 v 4.955992 c 0,2.055523 -1.673165,3.728065 -3.728718,3.728065" />
  </g>
</svg>
