<?xml version="1.0" encoding="UTF-8" standalone="no"?>
<!-- Created with Inkscape (http://www.inkscape.org/) -->

<svg
   width="210mm"
   height="297mm"
   viewBox="0 0 210 297"
   version="1.1"
   id="svg1"
   inkscape:version="1.3.1 (91b66b0783, 2023-11-16)"
   sodipodi:docname="1.Palmera_Inkscape.svg"
   xmlns:inkscape="http://www.inkscape.org/namespaces/inkscape"
   xmlns:sodipodi="http://sodipodi.sourceforge.net/DTD/sodipodi-0.dtd"
   xmlns="http://www.w3.org/2000/svg"
   xmlns:svg="http://www.w3.org/2000/svg">
  <sodipodi:namedview
     id="namedview1"
     pagecolor="#ffffff"
     bordercolor="#000000"
     borderopacity="0.25"
     inkscape:showpageshadow="2"
     inkscape:pageopacity="0.0"
     inkscape:pagecheckerboard="0"
     inkscape:deskcolor="#d1d1d1"
     inkscape:document-units="mm"
     inkscape:lockguides="true"
     inkscape:zoom="0.24787674"
     inkscape:cx="-526.47134"
     inkscape:cy="183.55897"
     inkscape:window-width="1920"
     inkscape:window-height="1001"
     inkscape:window-x="-9"
     inkscape:window-y="502"
     inkscape:window-maximized="1"
     inkscape:current-layer="svg1" />
  <defs
     id="defs1" />
  <g
     transform="matrix(0.03185584,0,0,-0.03285126,-402.20664,310.57159)"
     id="g236">
    <path
       id="path238"
       style="fill:#755032;fill-opacity:1;fill-rule:nonzero;stroke:none"
       d="m 15263.6,1077.69 c 0,0 195.3,2792.82 273.9,3650.07 116.4,1267.74 22.2,3486.25 22.2,3486.25 h 433.6 c 0,0 200.9,-2875.88 200.9,-3874.48 0,-998.6 105.8,-3452.243 105.8,-3452.243 0,0 -187.4,-171.89 -578.8,-87.289 -391.2,84.603 -457.6,277.692 -457.6,277.692" />
  </g>
  <g
     transform="matrix(0.03167009,0,0,-0.0326597,-402.20664,310.57159)"
     id="g240">
    <path
       id="path242"
       style="fill:#95693f;fill-opacity:1;fill-rule:nonzero;stroke:none"
       d="m 15925.1,4151.83 c -2.2,-0.99 -4.4,-2.13 -6.7,-3.2 -3.9,-2.06 -7.7,-4.19 -11.5,-6.39 -17.4,-10.1 -33.9,-21.76 -51.2,-31.93 -35.4,-20.75 -79.1,-35.4 -116.4,-10.23 -20.8,14 -34.4,35.26 -46.6,56.66 -12,21.11 -23.2,43.65 -44.2,57.44 -8.2,5.4 -18.1,10.09 -28.3,8.39 -11.7,-1.92 -20.2,-11.59 -26.9,-20.83 -4.3,-6.04 -8.6,-12.23 -12.6,-18.56 -12.2,-152.99 -25.1,-320.05 -38.5,-494.94 23.4,-4.26 46.7,-11.73 69.1,-15.35 23.4,-3.84 45.8,-0.71 64.7,14.5 21.4,17.35 35.9,41.52 57.1,59.15 22,18.27 50.3,31.85 79.5,27.01 30.6,-5.12 47,-32.06 54.6,-59.71 9.2,-33.7 16,-68.18 23.9,-102.16 4.5,-19.84 9.2,-39.67 13.7,-59.44 7,14.36 14.2,28.65 21.6,42.8 13,25.03 26.4,49.84 40.7,74.15 11.1,18.84 28.2,36.9 52.1,35.05 21.4,-1.71 36.7,-16 47.3,-34.2 10.1,30.79 23,60.72 38.5,89.23 9.3,17.13 20.7,36.18 41.2,41.01 21.7,5.19 40.1,-9.31 52.7,-25.37 27.9,-35.48 53.5,-73.09 78.1,-110.98 7.8,-12.16 15.5,-24.46 23,-36.83 -4.1,173.75 -7.3,337.26 -9.1,483.71 l -1.5,0.36 c -26.5,7.39 -47.3,21.75 -65.9,41.8 -3.9,4.26 -7.9,8.82 -12.7,12.16 -1.9,1.42 -4.1,2.63 -6.3,3.62 l -4,1.14 c -0.7,0.21 -1.4,0.36 -2.2,0.5 l -0.6,0.07 c -1.9,0 -3.8,0 -5.8,-0.07 h -0.7 l -1.3,-0.36 c -1.6,-0.5 -3.3,-0.85 -4.9,-1.35 -0.7,-0.21 -3.4,-1.28 -3.8,-1.42 -1.7,-0.78 -3.3,-1.56 -4.9,-2.42 -3.4,-1.85 -6.7,-3.91 -9.8,-6.04 -7.6,-5.05 -11.5,-8.39 -19.1,-14.58 -27.8,-23.17 -59.2,-53.1 -98.6,-46.35 -24.1,4.2 -39.7,22.9 -55.4,39.81 -6.9,7.4 -14,14.44 -23.3,18.56 -0.3,0.07 -3.6,1.21 -4.4,1.42 -1.8,0.57 -3.7,1 -5.6,1.28 l -0.1,0.07 h -0.2 c -1.1,0.07 -2.2,0.15 -3.2,0.22 -2,0.07 -3.8,0 -5.7,-0.07 -0.3,0 -2.2,-0.22 -2.9,-0.22 l -0.8,-0.14 c -2.2,-0.36 -4.3,-0.85 -6.5,-1.42 -3.8,-1 -7.7,-2.28 -11.4,-3.7 -0.8,-0.36 -1.1,-0.42 -1.3,-0.5 l -0.5,-0.21 c -0.8,-0.36 -1.6,-0.78 -2.4,-1.14" />
  </g>
  <g
     transform="matrix(0.03163046,0,0,-0.03261884,-402.20664,310.57159)"
     id="g244">
    <path
       id="path246"
       style="fill:#95693f;fill-opacity:1;fill-rule:nonzero;stroke:none"
       d="m 16210.8,5192.15 c -22.1,8.61 -45.2,14.88 -68.2,6.19 -15.3,-5.76 -30.6,-17.72 -44,-28.4 -29.7,-23.84 -61.8,-50.32 -102.5,-42.5 -20.5,3.85 -37.1,17.23 -53.6,28.76 -13.6,9.47 -28.6,20.15 -44.7,12.17 -18.7,-9.18 -30.9,-32.03 -43,-48.04 -15,-19.93 -30.5,-39.72 -49.4,-56.16 -33.5,-29.33 -76,-45.77 -120.5,-35.67 -5.3,1.22 -10.6,2.85 -15.7,4.92 -6.1,-94.39 -13,-185.43 -21,-271.99 -2.9,-31.89 -6,-66.48 -9.3,-103.49 20.1,15.94 42.9,27.54 69,31.32 39.9,5.69 86.6,-11.53 108.1,-46.13 15.1,19.22 30.2,38.51 45.2,57.73 14.6,18.79 29.9,44.06 55.4,48.76 13.8,2.56 27.6,-2.92 34.9,-15.09 7,-11.53 7.1,-26.27 8.8,-39.3 5.1,-40.85 10.3,-81.64 15.6,-122.43 34.9,58.94 69.8,117.95 104.7,176.89 5.1,8.75 19.3,11.88 26.5,3.42 17.9,-21.07 31,-44.99 38.9,-70.83 39.1,60.65 84.9,117.02 136.3,167.63 5.5,5.34 12.1,5.91 17.7,3.49 -3.1,97.37 -7,200.66 -11.5,308.28 l -1.6,0.5 c -25.9,8.76 -50.7,20.08 -76.1,29.97" />
  </g>
  <g
     transform="matrix(0.03173606,0,0,-0.03272774,-402.20664,310.57159)"
     id="g248">
    <path
       id="path250"
       style="fill:#95693f;fill-opacity:1;fill-rule:nonzero;stroke:none"
       d="m 16181.6,3070.4 c -25.8,14.4 -43.7,38.3 -64.8,58.24 -8.1,7.59 -18.2,15.89 -27.9,18.8 -9.8,3.05 -19.9,2.06 -29.3,-3.55 -21.5,-12.77 -34.4,-39.02 -52.3,-56.61 -23.1,-22.63 -54.3,-32.64 -86.3,-29.09 -66,7.38 -107.5,57.97 -141.6,110.11 -40.7,-37.6 -86.7,-74.5 -143.4,-79.96 -44.5,-4.25 -94.8,15.04 -118.8,54.21 -11.6,18.94 -12.6,40.15 -14.8,61.65 -1,9.29 -1.8,16.88 -4.5,26.46 -1.6,5.67 -1.5,5.25 -4,9.65 l -0.3,0.49 -1.2,1.07 c 1,-0.57 0.7,0.07 -0.1,0.49 -0.6,-0.28 -1.9,-0.64 -0.5,-0.07 l 0.4,0.15 -0.3,0.14 -1.6,-0.36 c -0.3,-0.07 -0.3,0.07 -0.3,0.22 0.1,0.28 0.2,0.56 -2,-0.57 -3.9,-1.92 -6.8,-5.25 -9.2,-8.73 -1,-1.2 -1.9,-2.55 -2.7,-3.83 -13.2,-176.94 -26.4,-356 -39.2,-531.37 26.3,1.06 52,-6.67 73.6,-24.98 23.8,-20.07 38.6,-49.02 53.7,-75.69 12.9,-22.99 26.4,-46.33 46.6,-61.79 23,18.08 46,36.18 69,54.27 13.6,10.71 26.9,22.06 41,31.99 12.1,8.52 27.3,14.33 42.2,10.36 28.9,-7.73 39.2,-41.93 50.3,-65.83 10.2,-22.35 20.6,-44.7 30.9,-67.05 21.7,30.79 47.7,58.6 77.3,81.94 10.4,8.23 23.4,5.18 28.2,-7.37 13.2,-34.2 22.5,-69.74 28.1,-105.92 7.1,27.81 14.7,55.54 22.8,83.07 8.9,30.22 17.3,61.08 28.7,90.53 10.1,25.82 27.3,50.01 57.5,51.64 29.6,1.56 55.1,-20 74.8,-39.58 21.6,-21.5 42.4,-43.85 62.3,-67.05 27.4,-32.06 52.3,-65.62 76.1,-100.1 -6.5,187.79 -12.8,380.12 -18.5,569.54 -34.4,-4.89 -68.7,-2.98 -99.9,14.48" />
  </g>
  <g
     transform="matrix(0.03156967,0,0,-0.03255615,-402.20664,310.57159)"
     id="g252">
    <path
       id="path254"
       style="fill:#95693f;fill-opacity:1;fill-rule:nonzero;stroke:none"
       d="m 16073.8,5762.73 c 18.7,4.42 37.4,0 54.6,-7.56 38.4,-16.69 68,-49.57 98.4,-77.31 24.4,-22.32 48.8,-44.57 73.2,-66.9 -9.2,188.21 -19.5,382.7 -30.2,576.83 -8.6,2.99 -17.4,5.2 -26.4,5.84 -42.7,3.07 -74.3,-30.88 -104,-56.62 -31.3,-27.18 -72,-55.63 -115.8,-45.08 -26.3,6.35 -51.6,28.39 -58.2,54.78 -32.6,-20.97 -53.7,-59.13 -75,-90.15 -26.1,-38.08 -59.7,-71.89 -105.7,-84.3 -16.9,-4.49 -34.6,-5.13 -51.3,-0.5 -1.9,-125.02 -4.7,-249.4 -8.4,-371.71 4.6,-0.36 9.2,-0.93 13.7,-1.85 38.7,-7.85 58.9,-39.58 80.8,-68.97 4.2,-5.63 9,-11.48 14.3,-16.69 2.6,-2.49 4.9,-4.56 6.3,-5.49 1.4,-0.92 2.9,-1.78 4.4,-2.64 l 1.1,-0.64 0.9,-0.28 c 1.2,-0.43 2.5,-0.72 3.7,-0.93 l 3.1,-0.14 c 1,0.07 1.4,0.07 1.7,0.07 l 0.8,0.21 c 1.5,0.36 2.9,0.71 4.2,1.22 7.2,3.06 12.2,10.05 16.4,16.25 13.3,19.69 25.5,39.73 40,58.56 15.2,19.83 31.5,38.79 49,56.62 7.7,7.99 20.9,5.78 26.5,-3.35 3,-4.99 6.1,-9.91 9.1,-14.83 3.3,12.91 6.7,25.74 10,38.65 6.2,23.61 10.5,48.93 20.8,71.11 8.1,17.18 23.1,31.45 42,35.8" />
  </g>
  <g
     transform="matrix(0.03181621,0,0,-0.0328104,-402.20664,310.57159)"
     id="g256">
    <path
       id="path258"
       style="fill:#95693f;fill-opacity:1;fill-rule:nonzero;stroke:none"
       d="m 16147.1,1486.28 c 10.6,-19.67 19.4,-39.63 35.4,-55.62 14.8,-14.72 33.1,-25.76 52.4,-33.4 21,-8.35 42.9,-13.73 65.1,-17.55 -6.4,160.99 -13.9,352.91 -21.8,562.37 -14.9,6.8 -29.7,13.52 -44.6,20.31 -18.7,8.49 -37.3,18.61 -56.7,25.48 -6.7,2.33 -14.1,4.67 -20.4,0.14 -5.7,-3.96 -9.6,-10.55 -13.5,-16.06 -10.3,-14.44 -21.4,-28.45 -33.9,-41.12 -24.3,-24.77 -54.9,-45.86 -90.6,-48.19 -28.2,-1.84 -54.1,10.68 -74.7,29.01 -18.5,16.42 -32.7,37.23 -47,57.25 -6.7,9.41 -13,18.26 -19.4,25.97 -3.8,4.67 -7.9,9.27 -12.2,13.52 -1.8,1.77 -3.5,3.54 -5.4,5.24 -0.7,0.56 -4.4,3.61 -4.5,3.82 -4.1,3.04 -8.5,5.73 -13.1,7.99 l -0.7,0.29 c -1.3,0.56 -2.6,1.06 -3.9,1.48 -2.1,0.64 -4.1,1.06 -6.1,1.56 -0.9,0.21 -1.7,0.35 -2.7,0.5 v 0 c -1.4,0.14 -2.8,0.21 -4.1,0.28 -2.7,0.07 -5.5,0.07 -8.2,-0.22 -6.8,-0.84 -13.6,-3.18 -19.8,-6.29 -29.7,-14.86 -52.6,-40.69 -86.3,-47.48 -15.4,-3.12 -31.6,-3.19 -46.3,2.97 -16.8,7.14 -25.8,20.59 -32.1,37.08 -2.5,6.58 -4.5,12.17 -9.4,16.2 -2.4,2.06 -6.3,3.68 -11.2,4.53 -8.2,1.49 -21,-1.34 -30.7,-6.23 -27.4,-13.86 -39.2,-43.38 -54,-68.71 -17.3,-29.44 -44.5,-64.04 -82.6,-62.27 -35.7,1.7 -51.3,35.59 -56.2,66.38 -2.9,18.61 -4.4,37.36 -7.8,55.9 -3.6,20.24 -8.4,40.27 -14.2,59.94 -3,10.33 -6.3,20.8 -9.9,31.13 -13.2,-183.56 -25.3,-353.04 -35.7,-499.53 6.2,6.87 12.6,13.59 18.9,20.24 13,13.45 26.4,26.61 40.1,39.35 13.2,12.31 27.4,24.7 45.7,28.23 33.5,6.51 60.6,-15.28 79.7,-40.4 20.8,-27.32 33,-59.94 48.9,-90.09 17.5,-32.83 36.8,-64.75 57.9,-95.46 37.3,-54.63 80.4,-105.16 128.1,-151.08 13.7,33.75 28.1,67.15 43.2,100.34 16.4,35.95 33.6,71.54 51.5,106.71 13.4,26.26 31.1,76.08 68.4,72.75 18.6,-1.63 28.4,-16.42 35.6,-31.91 8.9,-18.97 17.6,-38.01 26.5,-56.97 14.7,-31.77 29.5,-63.55 44.2,-95.32 32.9,23.14 56.3,59.73 61.2,99.99 1.4,11.82 9.5,17.83 21.2,16.21 26.9,-3.75 43.8,-27.03 55.7,-49.26" />
  </g>
  <g
     transform="matrix(0.03177118,0,0,-0.03276396,-402.20664,310.57159)"
     id="g260">
    <path
       id="path262"
       style="fill:#95693f;fill-opacity:1;fill-rule:nonzero;stroke:none"
       d="m 16063,1924.36 c 30.4,12.62 54.4,40.18 73.2,66.33 10.6,14.74 21.4,30.69 40.2,35.08 20.9,4.96 40.7,-5.81 59.1,-14.17 21.5,-9.78 43,-19.56 64.5,-29.34 -5.2,140.03 -10.6,287.36 -15.8,438.16 -30.9,45.78 -61.3,91.28 -97.1,133.66 -19.1,22.46 -38.9,44.22 -59.7,65.19 -9.5,9.71 -19.1,19.92 -30.6,27.5 -8.5,5.67 -18.9,11.48 -29.5,9.35 -21.7,-4.32 -27.8,-39.47 -33.3,-56.55 -9.7,-29.83 -18.7,-59.81 -27.2,-89.92 -17.3,-61.38 -32.2,-123.31 -44.9,-185.81 -3.8,-18.43 -35.3,-14.25 -33,4.53 8.4,70.72 1.3,142.01 -20.7,209.55 -27.2,-24.59 -50.7,-52.86 -69.5,-84.54 -5.9,-10.07 -23.6,-11.84 -29,0 -12.9,27.99 -25.9,56.05 -38.8,84.04 -6,13.04 -11.9,26.22 -18.1,39.19 -3,6.17 -7.4,16.58 -14,19.56 -8.9,3.9 -20.4,-7.79 -26.7,-12.76 -11.2,-8.78 -22.4,-17.57 -33.5,-26.36 -24.2,-18.99 -48.3,-37.98 -72.4,-56.9 -5.9,-4.75 -13.2,-6.8 -20.3,-2.62 -31.3,18.07 -50.6,49.25 -67.9,79.86 -14.3,25.3 -27.3,52.09 -49.8,70.09 -2.7,2.13 -11.2,7.37 -15.3,9.21 -6.4,2.76 -15.4,4.96 -23.3,5.32 -4.1,0.21 -8.2,0 -12.2,-0.43 -12.2,-166.96 -24.1,-330.09 -35.2,-484.37 8.4,-8.15 14.2,-18.64 18.9,-29.83 7.8,-18.64 14.4,-37.78 20,-57.12 5.7,-19.77 10.4,-39.83 13.9,-60.09 3.2,-18.29 4.5,-37.07 7.6,-55.14 2,-11.55 4.9,-25.51 12.3,-33.59 3.6,-3.82 7.5,-6.09 13.8,-6.02 7.8,0.07 15.6,4.18 21.6,8.78 25.6,19.71 36.7,53.37 54.3,79.37 17.7,26.23 43.3,45.15 75.3,48.97 13.4,1.63 27.6,-0.35 39.4,-7.15 16.2,-9.36 21.2,-24.31 28.3,-40.47 4.9,-11.05 13.1,-14.88 24.3,-15.09 12.9,-0.29 25.8,3.82 37,10.41 30.4,17.79 55.8,44.15 93.2,45.78 24.3,1.07 46.3,-9.85 64,-25.79 18,-16.09 31.6,-36.64 45.6,-56.13 7.4,-10.34 13.5,-18.92 21,-27.85 3.9,-4.6 8,-9.07 12.3,-13.25 1.9,-1.84 3.9,-3.68 5.9,-5.46 l 4.2,-3.61 c 10,-7.51 17.5,-11.27 28.8,-13.82 13,-2.98 26.9,-0.78 39.1,4.25" />
  </g>
  <g
     transform="matrix(0.03133034,0,0,-0.03230934,-402.20664,310.57159)"
     id="g264">
    <path
       id="path266"
       style="fill:#95693f;fill-opacity:1;fill-rule:nonzero;stroke:none"
       d="m 16032.5,8014.11 c -6.2,9.59 -13.8,17.98 -22.4,25.47 -36.3,31.87 -88.3,42.33 -135.3,38.02 -15,-1.36 -29.5,-4.08 -43.9,-7.75 3,-92.39 6.4,-204.43 9.7,-331.67 1.6,-1.92 3.1,-3.83 4.7,-5.7 8.1,-9.87 17.1,-17.24 29.6,-20.65 12.2,-3.31 25.3,-2.99 37.6,-0.5 31.3,6.35 56.5,24.73 81.3,43.89 27,20.86 54,41.81 86.9,52.62 25.7,8.44 53.5,10.24 80.3,7.53 48,-4.85 93.4,-21.17 139,-36.09 -4.8,73.67 -9.3,141.92 -13.4,203.62 -7.9,4.34 -15.4,9 -22.1,13.71 -22.8,15.91 -45.6,33.1 -72.4,41.87 -11.3,3.75 -23.8,6.42 -35.8,4.05 -11.7,-2.3 -20.5,-8.97 -29.1,-16.76 -17.7,-15.99 -37.8,-39.31 -64.3,-36.21 -6.7,0.78 -13.7,3.07 -19.1,7.45 -5.2,4.3 -7.7,11.45 -11.3,17.1" />
  </g>
  <g
     transform="matrix(0.03150731,0,0,-0.03249184,-402.20664,310.57159)"
     id="g268">
    <path
       id="path270"
       style="fill:#95693f;fill-opacity:1;fill-rule:nonzero;stroke:none"
       d="m 16001.2,6538.45 c -13.8,3.65 -27.8,1.86 -38,-8.64 -12.6,-13.08 -18.3,-31.37 -31.3,-44.31 -13.5,-13.51 -33.6,-22.65 -52.7,-17.29 -20.1,5.71 -24.7,24.15 -36,38.87 -16.7,22.23 -49.5,26.01 -75,19.72 0.1,-167.14 -0.8,-337.57 -3.2,-507.36 14.8,-7.71 32,-6.14 48.4,-0.71 20.3,6.79 38.7,19.65 53.7,34.73 16.1,16.07 27.9,35.87 40.6,54.66 26.5,39.38 55.9,78.9 102.9,94.33 11.6,3.79 25.3,-8.86 20.8,-20.87 -5.4,-14.5 2.2,-28.15 15.6,-37.3 15.9,-10.72 33.3,-10.14 50.9,-3.71 37.9,13.86 64.8,49.09 96.7,72.24 16.6,12.08 35.6,22.01 56,25.44 16.6,2.86 33.3,1.65 49.4,-2.5 -4.3,76.53 -8.6,153 -13,228.88 -15.7,24.66 -30.3,50.96 -48.2,74.04 -14.2,18.29 -33.3,28.29 -56.6,22.79 -51.9,-12.22 -70,-68.46 -84.3,-113.33 -5.1,-16.08 -27.6,-16.22 -32.7,0 -10.8,34.8 -24.2,79.75 -64,90.32" />
  </g>
  <g
     transform="matrix(0.03129905,0,0,-0.03227707,-402.20664,310.57159)"
     id="g272">
    <path
       id="path274"
       style="fill:#95693f;fill-opacity:1;fill-rule:nonzero;stroke:none"
       d="m 15967.1,8114.03 c 47.2,-11.51 91.7,-39.5 115.4,-82.69 0.9,-0.12 2.4,-0.2 0.5,-0.08 2.7,-0.17 0.4,-0.15 1.9,0.21 1,0.2 1.9,0.47 2.7,0.81 2.9,1.09 9,5.34 12.5,8.33 11.3,9.54 21.4,20.33 33.4,29.14 51,37.66 115,-0.09 158.4,-31.39 2.7,-1.92 5.4,-3.79 8.1,-5.63 -13.7,204.31 -22.3,327.37 -22.3,327.37 h -441.3 c 0,0 3.9,-91.36 9.1,-247.74 39.9,9.28 81.2,11.54 121.6,1.67" />
  </g>
  <g
     transform="matrix(0.03165163,0,0,-0.03264067,-402.20664,310.57159)"
     id="g276">
    <path
       id="path278"
       style="fill:#95693f;fill-opacity:1;fill-rule:nonzero;stroke:none"
       d="m 16141.4,4625.02 c -8.8,-15.22 -30.3,-7.61 -31.5,8.47 -1.7,26.17 -10.1,51.71 -24,73.98 -38.8,-65.66 -77.6,-131.32 -116.5,-196.97 -3.8,-6.41 -11.8,-9.75 -19,-7.76 -7.8,2.14 -11.5,8.75 -12.5,16.29 -4.1,32.44 -8.2,64.81 -12.3,97.24 -2.1,15.94 -4.2,31.87 -6.2,47.8 -1.9,14.8 -2.8,30.16 -5.9,44.75 -0.5,2.49 -2.4,4.91 -0.6,4.69 -3.8,0.43 -8.8,-4.48 -11.2,-6.61 -11.4,-9.96 -20,-23.83 -29.3,-35.71 -20.1,-25.68 -40.2,-51.36 -60.3,-77.04 -7.5,-9.53 -26.3,-4.48 -28.2,7.47 -3.4,21.77 -18.4,37.63 -39,45.95 -45.7,18.5 -90.1,-9.32 -120.7,-43.18 -9,-104.71 -19,-226.06 -29.7,-359.43 2.6,1.99 5.1,3.84 7.9,5.47 25.7,15.3 56,7.97 78.6,-9.24 22.4,-16.93 35.9,-39.98 49.4,-63.95 10.8,-19 23,-41.33 43.9,-50.65 8.8,-3.84 13.8,-4.27 22.3,-3.98 5.8,0.21 5.3,0.21 11,1.56 4.4,1 8.7,2.35 12.9,3.91 3.5,1.28 6.7,2.71 11.3,4.98 4.3,2.14 8.5,4.49 12.7,6.83 8.6,4.91 17,10.25 25.4,15.65 32.3,20.7 68.9,46.24 109.3,38.27 23.4,-4.62 39.8,-21.41 55.1,-38.34 6.8,-7.54 14.1,-16.08 23.7,-20.2 1.9,-0.86 4,-1.21 6.1,-1.85 l 1.7,-0.36 0.7,-0.07 c 2.1,-0.07 4.1,-0.07 6.2,0 0.6,0 0.9,0 1,-0.07 0.2,0.07 0.6,0.22 1.2,0.36 14.2,3.2 28.3,12.73 39.9,22.05 15,12.09 29.3,25.32 45.5,35.99 14.4,9.46 31.5,16.79 49.1,15.08 11.4,-1.07 21.9,-5.05 31.1,-11.95 10.9,-8.18 19,-19.06 29,-28.24 9,-8.18 19.4,-13.94 30.5,-18.07 -0.9,78.82 -1.4,152.37 -1.4,219.38 0,112.1 -2.4,247.83 -6.9,400.34 -4.8,12.23 -9.6,24.4 -14.4,36.63 -52.3,-54.2 -97.9,-114.38 -135.9,-179.47" />
  </g>
  <g
     transform="matrix(0.03138055,0,0,-0.03236112,-402.20664,310.57159)"
     id="g280">
    <path
       id="path282"
       style="fill:#95693f;fill-opacity:1;fill-rule:nonzero;stroke:none"
       d="m 16054.5,7759.04 c -31.2,-13.08 -56.7,-36.86 -83.7,-56.66 -25.2,-18.6 -52.8,-33.42 -84.2,-37.76 -24.3,-3.36 -49.6,-0.19 -70.1,12.77 2.1,-83.23 4.2,-172.33 6,-266.18 2.3,-3.53 4.8,-6.71 8,-9.01 8.2,-6.08 19.9,-3.07 29.5,1.48 29.7,14.23 45.3,45.5 70.6,65.4 13.5,10.61 28.9,18.49 46.3,19.22 5.3,0.23 11.4,-0.2 16.4,-1.68 5.3,-1.57 9.4,-5.88 13.6,-9.24 1.2,-0.92 2.3,-1.83 3.5,-2.75 11.4,26.7 28.9,53.18 54.2,65.73 14.3,7.12 30.6,9.3 45.9,3.76 18.7,-6.77 30.6,-21.6 41.5,-37.54 19.6,-28.84 40.3,-56.66 64.6,-81.82 23.6,-24.58 51.8,-48.07 83.4,-62.1 -8.4,132.15 -16.4,255.75 -23.7,367.65 -48.3,15.63 -97.2,35.39 -147.7,39.1 -25.6,1.89 -50.3,-0.4 -74.1,-10.37" />
  </g>
  <g
     transform="matrix(0.03169801,0,0,-0.0326885,-402.20664,310.57159)"
     id="g284">
    <path
       id="path286"
       style="fill:#95693f;fill-opacity:1;fill-rule:nonzero;stroke:none"
       d="m 15842.3,3609.28 c -4.4,19.03 -8.8,38 -13.2,57.03 -3.7,15.92 -6.2,33.11 -12.5,48.3 -4.1,9.95 -10.7,18.9 -21.4,21.95 -9.4,2.63 -20,0.36 -29.1,-3.26 -24.6,-9.95 -40.6,-31.68 -57.7,-50.79 -18.1,-20.17 -39.3,-39.14 -66.5,-45.39 -26.1,-5.89 -52.8,-0.92 -78.3,5.4 -12.4,2.99 -24.9,6.68 -37.5,9.16 -9.3,-121.67 -18.7,-246.89 -28.2,-373.4 6.2,1.92 13,2.28 20.6,0.5 20.6,-4.9 29.3,-26.63 32.7,-45.32 2.1,-10.72 3.1,-21.66 4.1,-32.46 1,-10.37 1.2,-17.47 4.4,-26.92 12.2,-36.22 60.1,-52.77 96,-48.23 53.3,6.75 96.7,49.01 134,84.32 8.1,7.6 20.6,5.96 26.5,-3.41 19.8,-31.75 40.4,-65.35 70.7,-88.36 25.5,-19.32 60.4,-30.12 91.6,-19.32 25.4,8.73 39.9,34.87 56.5,54.12 19.1,22.09 44.4,37.5 74.6,32.32 27.3,-4.69 48.1,-26.28 66.4,-45.46 19.8,-20.74 38.8,-39.99 67.7,-46.45 18.4,-4.05 37.5,-3.2 56.3,-0.22 -4.7,157.48 -9,312.67 -12.6,461.27 -36.3,64.07 -76.4,125.79 -120.4,184.75 -5.5,7.45 -18.7,30.54 -30.4,23.29 -5.6,-3.48 -9.1,-10.44 -12.3,-15.84 -5,-8.73 -9.7,-17.75 -14.1,-26.77 -18.1,-36.8 -31.3,-75.72 -40.1,-115.78 -1.8,-8.31 -10.5,-13 -18.4,-12.08 -9,1.07 -13.6,8.24 -14.7,16.55 -2.2,16.98 -9.7,38.86 -22.2,51.64 -3,3.13 -4.2,4.26 -7.7,5.89 l -3.2,1 c -1.9,0.43 -2.2,0.43 -0.5,0.07 -0.9,0 -1.8,-0.07 -2.6,-0.07 l -3.5,-1 c -0.8,-0.35 -3.2,-1.91 -4.4,-2.91 -4,-3.33 -6.8,-7.95 -9.5,-12.36 -31.3,-51.63 -58.4,-106.47 -83.5,-161.37 -6.1,-13.36 -27.7,-9.31 -30.8,3.97 -8.9,38.57 -17.9,77.14 -26.8,115.64" />
  </g>
  <g
     transform="matrix(0.03185584,0,0,-0.03285126,-402.20664,310.57159)"
     id="g288">
    <path
       id="path290"
       style="fill:#95693f;fill-opacity:1;fill-rule:nonzero;stroke:none"
       d="m 16267.8,1346.19 c -46.3,8.34 -94,24.53 -128.3,58.24 -17.1,16.75 -27.8,37.04 -38.7,58.03 -6,11.8 -12.3,23.68 -21.5,31.24 -12.3,-48.49 -43.9,-90.89 -88.9,-114.71 -7.3,-3.96 -19,-2.47 -22.9,6.01 -17.6,37.95 -35.2,75.9 -52.9,113.86 -7.8,16.96 -15.8,33.92 -23.6,50.89 -2.3,5.01 -4.7,13.71 -9.2,17.31 -2.3,1.84 -2.8,1.35 -5.6,-0.71 -10.8,-7.84 -16.4,-23.03 -22.3,-34.48 -8.4,-16.05 -16.6,-32.23 -24.6,-48.49 -31.6,-63.68 -60.5,-128.63 -86.8,-194.72 -4.7,-11.73 -18,-16.53 -28.1,-7.35 -59.7,54.78 -112.7,116.83 -157.7,184.19 -19.8,29.75 -38.1,60.57 -54.6,92.23 -14.5,27.71 -25.6,58.31 -45.1,83.05 -7.3,9.11 -17.1,19.22 -27.2,23.32 -11.5,4.6 -22.3,1.98 -33.2,-6.15 -14.1,-10.53 -26.5,-24.17 -38.9,-36.54 -12.6,-12.51 -24.8,-25.44 -36.8,-38.59 -8.1,-8.83 -15.8,-17.81 -23.6,-26.92 -20.7,-291.55 -33.8,-478.21 -33.8,-478.21 0,0 66.5,-193.089 457.7,-277.692 391.4,-84.601 578.8,87.289 578.8,87.289 0,0 -7.7,177.683 -18.9,456.793 -4.4,0.7 -8.8,1.34 -13.3,2.11" />
  </g>
  <g
     transform="matrix(0.03160524,0,0,-0.03259284,-402.20664,310.57159)"
     id="g292">
    <path
       id="path294"
       style="fill:#95693f;fill-opacity:1;fill-rule:nonzero;stroke:none"
       d="m 16188.2,5644.15 c -16.1,14.74 -32.2,29.63 -48.4,44.31 -12.3,11.11 -25.8,21.01 -40.8,28.35 -11.4,5.56 -26.4,10.47 -38.6,5.63 -14.3,-5.77 -19,-21.73 -22.7,-35.19 -11.3,-41.11 -21.5,-82.5 -32.3,-123.74 -3.7,-14.32 -23.4,-16.17 -30.9,-3.99 -6,9.9 -12.1,19.87 -18.2,29.85 -13.4,-14.75 -26.2,-30.14 -37.9,-46.24 -7.9,-10.75 -15.3,-21.79 -22.3,-33.05 -6.2,-9.83 -12.3,-19.95 -20.3,-28.57 -13.1,-14.17 -32.2,-21.94 -51.5,-18.09 -15.1,3.06 -27.7,13.39 -37.6,24.65 -20.1,22.58 -35.2,58.91 -65.9,68.88 -4.8,1.5 -9.7,2.5 -14.6,3.07 -5.5,-167.77 -12.6,-331.11 -22.2,-485.84 9.6,-6.34 21.2,-9.97 32.6,-10.69 18.5,-1.14 36.2,2.07 52.6,11.11 20.5,11.33 37.1,27.86 52.2,45.6 15.6,18.52 28.9,38.96 44.3,57.63 15,17.95 36,33.19 60.6,31.06 21.6,-1.93 38.9,-14.39 56.1,-26.64 15,-10.62 30.2,-20.45 47.8,-18.24 0.1,0.14 4.2,0.92 4.9,1.14 1.9,0.42 3.7,0.99 5.5,1.64 3.3,1.14 5.2,2.06 9,4.13 8,4.34 15.6,9.61 22.9,15.1 15.1,11.47 29.9,24.58 46,35.05 18.3,11.82 39,19.87 61,19.66 29,-0.28 55.5,-12.68 81.5,-23.72 12.9,-5.42 25.8,-10.47 39,-15.11 -4.8,114.27 -10.2,233.09 -16.1,354.84 -31.9,29.14 -63.8,58.27 -95.7,87.41" />
  </g>
  <g
     transform="matrix(0.0314195,0,0,-0.03240128,-402.20664,310.57159)"
     id="g296">
    <path
       id="path298"
       style="fill:#95693f;fill-opacity:1;fill-rule:nonzero;stroke:none"
       d="m 16264.6,7322.84 c -61.6,27.33 -108.9,82.2 -147.3,135.9 -9.1,12.64 -16.8,28.11 -28.7,38.41 -4.4,3.82 -10.3,6.44 -14.6,6.77 -5.5,0.42 -8.7,-0.47 -13.1,-2.77 -24.2,-12.55 -38.4,-43.21 -46.2,-68.09 -4.2,-13.15 -18.5,-15.43 -28.5,-7.51 -8,6.4 -16.1,12.8 -24.1,19.21 -12.4,1.34 -24,-5.97 -33.1,-13.82 -12.4,-10.71 -22.3,-23.53 -33.2,-35.73 -18.4,-20.93 -47.3,-41.12 -76.5,-39.44 -5.4,0.31 -10.7,1.41 -15.6,3.2 1.9,-100.01 3.6,-204.99 5,-313.7 5.4,-1.79 10,-5.94 11.3,-11.46 9.8,-44.07 50.5,-75.1 95,-81.05 17.2,-2.29 37.6,-0.14 53.8,7.6 21.4,10.24 37.9,28.02 54.6,44.36 18.3,17.91 37.5,34.97 61.6,44.49 29.8,11.9 62.2,6.53 92.8,0.79 40.7,-7.52 81.5,-15.19 122.2,-22.85 -6.1,99.6 -12.1,196.27 -17.9,288.99 -5.9,1.97 -11.8,4.14 -17.5,6.7" />
  </g>
  <g
     transform="matrix(0.03147421,0,0,-0.03245771,-402.20664,310.57159)"
     id="g300">
    <path
       id="path302"
       style="fill:#95693f;fill-opacity:1;fill-rule:nonzero;stroke:none"
       d="m 16224.9,6989.32 c -34.6,6.44 -69.3,14.16 -104.2,19.17 -28.3,4.15 -53.1,0.29 -76,-17.24 -20.3,-15.52 -36.6,-35.62 -56.3,-51.86 -19.2,-15.88 -40.5,-27.75 -65.4,-31.55 -23.7,-3.64 -48.1,-1.43 -70.7,6.66 -27.6,9.87 -52.8,27.39 -70.3,50.57 1.5,-128.47 2.4,-261.46 2.7,-396.8 35.1,5.8 75.4,-1.93 99.2,-30.33 6.5,-7.8 10.3,-16.67 15.9,-25.04 3.2,-4.86 6.2,-6.36 11.6,-4.93 17.3,4.65 24.6,25.89 33.9,39.13 11.4,16.59 26.6,29.47 47,32.76 20.3,3.22 41.1,-1.5 58.6,-11.95 22.7,-13.52 36.9,-34.83 47.4,-58.22 7.3,17.74 16.2,34.76 28.3,50 18,22.67 44.2,39.06 73.1,43.06 30.6,4.29 58.7,-7.44 78.4,-31.12 7.9,-9.37 15,-19.45 21.9,-29.75 -8.7,149.57 -17.5,296.65 -26.2,438.29 -16.3,3 -32.6,6.08 -48.9,9.15" />
  </g>
  <g
     transform="matrix(0.03500927,0,0,-0.03610323,-402.20664,310.57159)"
     id="g304">
    <path
       id="path306"
       style="fill:#ff6600;fill-opacity:1;fill-rule:nonzero;stroke:none"
       d="m 16300,6254.5 c -102.2,418.7 -346.3,801.45 -682.8,1070.73 -336.5,269.28 -763.5,423.44 -1194.4,431.29 l -610,-81.89 c -415.5,-337.55 -550.1,-904.08 -659.8,-1428.11 18.4,47.79 50.6,90.23 91.7,120.78 -80.6,-347.79 -91.2,-711.6 -31.1,-1063.57 66.2,117.68 142.2,229.78 227.1,334.73 12.6,-21.99 25.3,-43.92 38,-65.92 215.6,267.34 391.8,566.46 521.3,884.6 -94.2,-402.52 -84.3,-828.97 28.3,-1226.73 36.6,106.24 92.1,205.92 163,293.07 -19.2,-307.54 28.8,-619.13 139.6,-906.66 115.1,295.19 192.4,605.1 229.4,919.78 30.7,-98.79 61.5,-197.5 92.2,-296.29 105.2,386.06 129.8,793.86 71.9,1189.69 165.1,-297.95 364.5,-576.87 593.3,-829.29 37.1,130.68 57.9,265.93 61.8,401.69 47.2,-233 136.3,-457.44 262,-659.19 147.3,306.7 154.6,677.45 19.3,989.68 87.2,-71.7 166.1,-153.31 234.9,-242.77 1.6,97.56 -18.7,195.44 -59.1,284.32 131.6,-97.18 301.3,-141.03 463.4,-119.94" />
  </g>
  <g
     transform="matrix(0.03594791,0,0,-0.0370712,-402.20664,310.57159)"
     id="g308">
    <path
       id="path310"
       style="fill:#aa4400;fill-opacity:1;fill-rule:nonzero;stroke:none"
       d="m 12936.7,7710.06 c -427.6,-256.96 -739.8,-698.33 -839.9,-1186.99 37.7,23.21 75.4,46.42 113,69.63 -1.2,-38.1 -2.4,-76.18 -3.7,-114.28 148.8,94.36 279.6,217.1 383.2,359.68 -11.8,-108.26 -23.5,-216.53 -35.3,-324.79 209,277.04 447.7,531.7 710.7,758.22 -312,-412.92 -557.3,-913.21 -510,-1428.54 117.4,107.1 241.5,206.87 371.4,298.38 3,-39.27 6,-78.54 9.1,-117.81 173.9,224.66 297.6,487.85 359.6,765.06 14.1,-113.88 28.2,-227.77 42.3,-341.65 200.6,220.33 372.6,466.76 510.2,731.12 -91.5,-497.65 -182.2,-1016.74 -42.4,-1503.02 29.9,51.11 59.8,102.22 89.8,153.32 -21.7,-94.57 -6.9,-197.1 40.7,-281.71 87.5,262.23 175.5,526.29 214,800.06 38.4,273.78 24.7,560.88 -85.3,814.51 236.6,-311.49 464.7,-629.5 683.8,-953.5 12,63.48 41.4,123.6 84.2,171.99 32.5,-73.6 64.9,-147.18 97.3,-220.84 53.9,4.7 109.3,-24.86 135.4,-72.34 18.9,424.87 -205.4,852.2 -565.8,1077.93 329.2,-41.69 638,-225.36 831.7,-494.75 -5.2,34.74 -10.5,69.48 -15.7,104.21 122.7,-95.81 228.6,-213.12 311.4,-344.99 48.8,130.45 84.2,265.93 105.3,403.6 75.4,-177.28 199,-333.77 354,-448.13 14.3,213.89 -70.5,425.88 -199.5,597.04 -129.1,171.16 -300,305.99 -476.6,427.61 -262,180.53 -543.8,337.76 -849.5,426.33 -336.3,97.49 -609.7,39.47 -944.5,17.33 -67.5,-4.47 -133.3,3.64 -199.2,11.76 -76.9,9.47 -153.9,18.95 -233.9,8.4 -157.4,-20.76 -310.3,-81.37 -445.8,-162.84" />
  </g>
  <g
     transform="matrix(0.03565274,0,0,-0.03676681,-402.20664,310.57159)"
     id="g312">
    <path
       id="path314"
       style="fill:#803300;fill-opacity:1;fill-rule:nonzero;stroke:none"
       d="m 12984,8078.78 c -167.2,-34.21 -349.8,-81.87 -442.6,-224.96 73.6,8.76 147.3,17.51 221,26.27 -32.2,-39.22 -64.4,-78.44 -96.6,-117.66 115.3,32.02 230.8,64.03 346.1,96.04 -39.4,-44.22 -78.8,-88.43 -118.2,-132.64 378.3,127.61 785.1,169.76 1181.6,122.41 -188.9,-71.62 -391.6,-101.86 -579.6,-175.68 -286.2,-112.4 -530.8,-327.43 -679.1,-596.84 58.7,36.5 117.4,72.99 176,109.49 -95.1,-139.78 -160.6,-299.62 -190.8,-465.94 214.2,130.07 420.4,273.26 617,428.52 -20.5,-67.16 -41,-134.31 -61.5,-201.46 276.4,243.75 540.7,501.15 791.7,770.98 -134.3,-344.59 -198.8,-716.27 -188.3,-1085.99 40.2,42.88 80.4,85.75 120.6,128.63 18.9,-226.42 64.6,-450.59 136.2,-666.19 124.2,204.99 197.5,440.56 211.7,679.86 21.9,-33.31 52.5,-60.88 87.9,-79.3 64.3,288.98 46.6,595.7 -50.3,875.42 57.4,-25.46 102.1,-72.28 145.2,-117.95 187.9,-199.12 375.8,-398.24 563.7,-597.36 16.1,61.38 32.2,122.75 48.3,184.13 27.5,-61.41 54.9,-122.82 82.3,-184.22 24.6,31.33 49.2,62.67 73.8,94 124.6,-145.18 249.2,-290.37 373.8,-435.56 93.6,169.3 63.8,386.88 -34.8,553.28 -98.7,166.4 -256.3,289.29 -420.2,392.04 -235.3,147.49 -491.1,262.05 -757.8,339.29 498.7,81.23 1026.1,-27.18 1452.4,-298.55 -43,60.39 -86.1,120.78 -129.2,181.17 124.1,-133.73 272.5,-244.88 435.7,-326.41 -33.7,166.3 -173.3,289.3 -315.9,381.27 -311.7,201.02 -678.7,311.98 -1048.7,326.91 -189.3,7.65 -379.8,-9.72 -564.2,-53.18 -68,-16.02 -153.3,-60.68 -223.9,-50.48 -76.6,11.08 -398.1,277.29 -1163.3,120.66" />
  </g>
  <g
     transform="matrix(0.03077512,0,0,-0.03173677,-402.20664,310.57159)"
     id="g316">
    <path
       id="path318"
       style="fill:#8f7159;fill-opacity:1;fill-rule:nonzero;stroke:none"
       d="m 16146.3,1456.9 c -15.2,19.46 -29.6,39.58 -43.3,60.06 -20.5,30.8 -39.5,62.7 -56.5,95.47 -15,28.68 -26.5,60.36 -46.7,85.97 -7.5,9.43 -17.8,19.9 -28.2,24.14 -1.3,0.51 -2.7,0.95 -4,1.32 0.5,11.63 1.1,23.19 1.7,34.82 24.5,-4.02 44.7,-22.09 60,-42.14 21.4,-28.24 34.1,-61.96 50.6,-93.13 18,-33.95 38,-66.94 59.7,-98.69 2.7,-3.96 5.4,-7.9 8.2,-11.78 -0.5,-18.73 -1,-37.39 -1.5,-56.04 m -165.6,507.51 c 0.8,12.43 1.6,24.87 2.3,37.31 3.1,1.53 6,3.43 8.6,5.41 26.5,20.34 37.9,55.09 56.1,81.94 18.3,27.07 44.7,46.6 77.7,50.55 3,0.37 6.1,0.59 9.1,0.59 11,0 22,-2.49 31.6,-7.98 0.7,-0.44 1.5,-0.88 2.1,-1.32 -0.9,-19.16 -1.9,-38.4 -2.7,-57.57 -1.7,3.37 -3.3,6.88 -4.6,10.46 -2.6,6.81 -4.7,12.58 -9.7,16.75 -2.5,2.13 -6.5,3.81 -11.6,4.69 -1.5,0.29 -3.2,0.43 -4.9,0.43 -8.2,0 -18.6,-2.7 -26.9,-6.87 -28.3,-14.34 -40.4,-44.85 -55.8,-71.04 -15.7,-26.63 -39.2,-57.43 -71.3,-63.35 m 117.8,611.61 c -2.7,0 -5.5,0.73 -8.2,2.34 -26.5,15.29 -44.7,39.73 -60.2,65.48 1.8,20.26 3.5,40.45 5.3,60.72 5.1,-8.78 9.9,-17.56 14.8,-26.19 13.3,-23.71 27.2,-47.78 48.1,-63.72 23.7,18.65 47.4,37.31 71.1,55.96 14.1,11.05 27.7,22.76 42.3,33 2.1,1.53 4.4,2.92 6.7,4.24 -2.1,-15.73 -4.1,-31.6 -6.1,-47.41 -8.8,-6.87 -17.6,-13.75 -26.3,-20.63 -24.9,-19.6 -49.8,-39.21 -74.7,-58.74 -3.9,-3.08 -8.2,-5.05 -12.8,-5.05 m 13,608.17 c -14.4,0 -29,2.27 -43,6.73 1.3,11.85 2.7,23.63 4.2,35.27 12.9,-4.91 27,-7.32 40.2,-7.32 4.2,0 8.4,0.22 12.3,0.73 54.9,6.95 99.6,50.48 138.1,86.84 3.5,3.37 7.9,4.98 12.2,4.98 5.8,0 11.6,-2.93 15.1,-8.49 2.7,-4.39 5.4,-8.78 8.2,-13.24 1.1,-19.39 1.2,-39.8 0.3,-60.5 -9.6,12.21 -18.5,25.09 -27,38.04 -42,-38.77 -89.4,-76.82 -147.9,-82.45 -4.2,-0.37 -8.4,-0.59 -12.7,-0.59" />
  </g>
  <g
     transform="matrix(0.03077332,0,0,-0.03173492,-402.20664,310.57159)"
     id="g320">
    <path
       id="path322"
       style="fill:#a98563;fill-opacity:1;fill-rule:nonzero;stroke:none"
       d="m 16099.2,2614.79 c -21,15.95 -34.8,40.02 -48.2,63.72 -4.8,8.64 -9.6,17.42 -14.8,26.2 5.7,63.5 11.5,127.01 17.5,190.44 4.5,46.6 2.9,174.64 15.7,295.95 14,-4.47 28.6,-6.73 42.9,-6.73 4.4,0 8.6,0.21 12.8,0.58 58.5,5.63 105.9,43.68 147.9,82.45 8.5,-12.95 17.4,-25.82 27,-38.04 -4.6,-113.99 -34.8,-239.54 -44,-289.29 -14.2,-77.11 -26.4,-154.44 -36.7,-232.07 -2.3,-1.32 -4.6,-2.71 -6.7,-4.25 -14.6,-10.24 -28.3,-21.95 -42.3,-32.99 -23.7,-18.66 -47.4,-37.32 -71.1,-55.97" />
  </g>
  <g
     transform="matrix(0.03052115,0,0,-0.03147487,-402.20664,310.57159)"
     id="g324">
    <path
       id="path326"
       style="fill:#a98563;fill-opacity:1;fill-rule:nonzero;stroke:none"
       d="m 16282.2,1525.53 c -2.8,3.91 -5.5,7.89 -8.2,11.88 -21.9,32.01 -42.1,65.28 -60.3,99.51 -16.6,31.43 -29.4,65.43 -51,93.91 -15.4,20.21 -35.8,38.43 -60.5,42.49 3.6,69.12 7.5,138.31 11.5,207.43 32.3,5.98 56.1,37.04 71.9,63.89 15.5,26.41 27.7,57.17 56.3,71.63 8.3,4.2 18.8,6.93 27,6.93 1.8,0 3.5,-0.15 5,-0.44 5.1,-0.89 9.2,-2.58 11.7,-4.72 5.1,-4.21 7.2,-10.03 9.8,-16.9 1.4,-3.61 2.9,-7.15 4.6,-10.55 -8.6,-188.03 -12.8,-376.65 -17.8,-565.06" />
  </g>
  <g
     transform="matrix(0.03060941,0,0,-0.03156589,-402.20664,310.57159)"
     id="g328">
    <path
       id="path330"
       style="fill:#a98563;fill-opacity:1;fill-rule:nonzero;stroke:none"
       d="m 16069.5,2012.55 c 13.1,215.37 28.9,430.59 47.4,645.59 15.5,-25.89 33.9,-50.46 60.5,-65.83 2.7,-1.62 5.5,-2.35 8.2,-2.35 4.6,0 9,1.98 12.9,5.07 25,19.64 50,39.35 75.1,59.07 8.8,6.91 17.6,13.83 26.4,20.74 -22,-176.61 -35.3,-354.24 -44.3,-532.4 -0.6,0.45 -1.4,0.89 -2.1,1.33 -9.6,5.52 -20.8,8.02 -31.8,8.02 -3,0 -6.1,-0.22 -9.1,-0.59 -33.3,-3.97 -59.8,-23.61 -78.2,-50.83 -18.2,-26.99 -29.7,-61.93 -56.3,-82.38 -2.7,-1.99 -5.6,-3.9 -8.7,-5.44" />
  </g>
  <g
     transform="matrix(0.03077287,0,0,-0.03173445,-402.20664,310.57159)"
     id="g332">
    <path
       id="path334"
       style="fill:#a98563;fill-opacity:1;fill-rule:nonzero;stroke:none"
       d="m 16114.1,3219.1 c -13.3,0 -27.3,2.42 -40.3,7.32 15.8,119.18 47.9,223 116.7,223 2.2,0 4.5,-0.14 6.8,-0.29 71.2,-6.8 97.7,-74.33 102.7,-159.2 -2.8,4.46 -5.6,8.85 -8.3,13.24 -3.5,5.56 -9.2,8.48 -15,8.48 -4.4,0 -8.7,-1.6 -12.3,-4.97 -38.4,-36.36 -83.1,-79.9 -138,-86.85 -4,-0.51 -8.1,-0.73 -12.3,-0.73" />
  </g>
  <g
     transform="matrix(0.0304849,0,0,-0.03143749,-402.20664,310.57159)"
     id="g336">
    <path
       id="path338"
       style="fill:#a98563;fill-opacity:1;fill-rule:nonzero;stroke:none"
       d="m 16233.2,1129.7 c -14.8,0 -28.5,7.53 -40.4,16.47 -86.2,65.21 -90.6,190.84 -86.4,298.82 3.9,98.45 8.2,196.9 13.2,295.28 1.3,-0.37 2.7,-0.82 4,-1.33 10.6,-4.29 20.9,-14.85 28.5,-24.37 20.4,-25.85 32,-57.83 47.2,-86.79 17.2,-33.08 36.3,-65.28 57,-96.38 13.9,-20.68 28.4,-40.99 43.7,-60.63 -2.3,-80.95 -4.7,-161.82 -7.8,-242.62 -1.7,-42.1 -15.8,-97.27 -57.9,-98.45 -0.4,0 -0.8,0 -1.1,0" />
  </g>
  <g
     transform="matrix(0.03091359,0,0,-0.03187957,-402.20664,310.57159)"
     id="g340">
    <path
       id="path342"
       style="fill:#8f7159;fill-opacity:1;fill-rule:nonzero;stroke:none"
       d="m 16263.2,3619.22 c -6.2,27.17 -12.6,54.4 -18.9,81.65 -4.5,19.51 -9,38.96 -13.6,58.48 -3.8,16.31 -6.3,33.94 -12.8,49.52 -4.2,10.2 -10.9,19.38 -21.9,22.51 -2.9,0.8 -6,1.16 -9,1.16 -7.1,0 -14.4,-1.89 -20.9,-4.51 -25.2,-10.2 -41.6,-32.48 -59.1,-52.08 -18.6,-20.68 -40.3,-40.13 -68.2,-46.54 -2.7,-0.58 -5.5,-1.09 -8.4,-1.53 -1.1,11.66 -1.6,23.38 -1.6,35.11 10.9,2.33 21.2,6.99 30.8,14.64 21.9,17.77 36.8,42.53 58.5,60.59 19.4,16.1 43.6,28.7 69.1,28.7 4.1,0 8.2,-0.29 12.4,-1.02 31.3,-5.24 48.1,-32.85 55.9,-61.18 9.5,-34.52 16.4,-69.84 24.5,-104.66 3.3,-14.64 6.7,-29.2 10.1,-43.77 -7.1,-13.18 -16,-25.93 -26.9,-37.07 m -93.6,567.58 c -15.4,0 -30.8,3.93 -45.1,13.62 -21.3,14.34 -35.3,36.12 -47.7,58.04 -4.8,8.38 -9.4,16.9 -14.5,25.13 6.5,10.63 14,19.96 22.6,27.75 7.7,-10.78 14.4,-22.51 21.1,-34.38 11,-19.44 23.5,-42.31 44.9,-51.86 7.5,-3.27 12.3,-4.15 18.7,-4.15 1.3,0 2.7,0.08 4.1,0.08 5.9,0.21 5.4,0.21 11.3,1.6 4.4,1.02 8.9,2.4 13.2,4.01 3.5,1.31 6.8,2.76 11.6,5.09 4.4,2.19 8.7,4.59 13,7 8.8,5.02 17.4,10.48 25.9,16.02 12,7.57 24.4,15.87 37.5,22.94 5.3,-9.9 9.9,-20.61 13.8,-31.9 -1.3,-0.73 -2.6,-1.46 -3.9,-2.18 -17.7,-10.35 -34.6,-22.29 -52.4,-32.71 -22.6,-13.25 -48.5,-24.1 -74.1,-24.1" />
  </g>
  <g
     transform="matrix(0.03098023,0,0,-0.03194829,-402.20664,310.57159)"
     id="g344">
    <path
       id="path346"
       style="fill:#a98563;fill-opacity:1;fill-rule:nonzero;stroke:none"
       d="m 16255.1,3648.43 c -3.4,14.54 -6.8,29.07 -10.1,43.68 -8.1,34.74 -15,69.99 -24.4,104.44 -7.8,28.27 -24.6,55.81 -55.8,61.04 -4.2,0.73 -8.3,1.02 -12.4,1.02 -25.4,0 -49.6,-12.57 -68.9,-28.63 -21.7,-18.03 -36.6,-42.74 -58.4,-60.47 -9.6,-7.63 -19.9,-12.28 -30.8,-14.61 0,15.7 0.6,31.4 1.3,47.03 3.8,83.13 -39.4,355.81 32.2,472.45 5,-8.21 9.7,-16.71 14.4,-25.07 12.4,-21.88 26.4,-43.6 47.6,-57.92 14.3,-9.67 29.7,-13.59 45.1,-13.59 25.5,0 51.4,10.83 73.9,24.05 17.7,10.4 34.6,22.32 52.3,32.64 1.3,0.72 2.6,1.45 3.9,2.18 32.5,-93.03 21.3,-224.57 23.5,-262.8 5.8,-98.47 11.5,-198.47 -20,-294.4 -3.4,-10.25 -7.8,-20.79 -13.4,-31.04" />
  </g>
  <g
     transform="matrix(0.03088725,0,0,-0.03185241,-402.20664,310.57159)"
     id="g348">
    <path
       id="path350"
       style="fill:#a98563;fill-opacity:1;fill-rule:nonzero;stroke:none"
       d="m 16183.4,4224.54 c -6.4,0 -11.3,0.88 -18.8,4.16 -21.4,9.55 -33.9,32.43 -44.9,51.9 -6.7,11.88 -13.4,23.61 -21.2,34.4 9.9,9.11 21.4,16.04 34.5,20.48 23.7,8.02 44.7,11.67 63.3,11.67 50.2,0 82.7,-26.68 103.7,-65.83 -13,-7.07 -25.5,-15.37 -37.5,-22.96 -8.5,-5.54 -17.1,-11 -25.9,-16.03 -4.3,-2.41 -8.6,-4.81 -13.1,-7 -4.7,-2.33 -8,-3.79 -11.6,-5.1 -4.3,-1.61 -8.7,-2.99 -13.1,-4.01 -6,-1.39 -5.4,-1.39 -11.3,-1.6 -1.5,0 -2.8,-0.08 -4.1,-0.08" />
  </g>
  <g
     transform="matrix(0.03084379,0,0,-0.03180759,-402.20664,310.57159)"
     id="g352">
    <path
       id="path354"
       style="fill:#a98563;fill-opacity:1;fill-rule:nonzero;stroke:none"
       d="m 16208.2,3587.7 c -55.7,0.07 -100.2,36.2 -120.1,73.79 -12.7,24.02 -18.8,49.2 -21.4,74.83 2.8,0.43 5.6,0.94 8.4,1.53 28,6.42 49.7,25.91 68.3,46.64 17.6,19.64 34,41.98 59.3,52.19 6.5,2.63 13.8,4.53 20.9,4.53 3,0 6.1,-0.36 9,-1.17 11,-3.14 17.8,-12.33 22,-22.55 6.5,-15.62 9,-33.29 12.8,-49.64 4.6,-19.56 9.1,-39.05 13.6,-58.61 6.4,-27.31 12.7,-54.61 19,-81.83 -21.8,-22.56 -51.2,-38.84 -89,-39.64 -0.9,0 -1.9,-0.07 -2.8,-0.07" />
  </g>
  <g
     transform="matrix(0.03054209,0,0,-0.03149647,-402.20664,310.57159)"
     id="g356">
    <path
       id="path358"
       style="fill:#803300;fill-opacity:1;fill-rule:nonzero;stroke:none"
       d="m 16266.3,9249.67 c -7.1,0 -14.6,1.61 -21.6,3.24 -164.3,38.18 -332.9,57.41 -501.6,57.41 -76.8,0 -153.7,-4 -230.2,-12.02 -10.7,-1.12 -21.7,-2.3 -32.4,-2.3 -10.9,0 -21.6,1.2 -31.8,4.84 -20.3,7.26 -37.9,27.59 -34.2,48.89 1.7,9.68 7.5,18.19 13.9,25.56 38.4,43.41 101.8,52.91 159.7,55 15.6,0.56 31.3,0.84 46.9,0.84 201.9,0 404.9,-45.37 598.2,-98.05 19.5,-5.3 40,-11.5 53.1,-26.85 13.1,-15.34 13.7,-42.85 -3.8,-52.76 -5,-2.8 -10.5,-3.8 -16.2,-3.8" />
  </g>
  <g
     transform="matrix(0.0301733,0,0,-0.03111615,-402.20664,310.57159)"
     id="g360"
     style="fill:#803300">
    <path
       id="path362"
       style="fill:#803300;fill-opacity:1;fill-rule:nonzero;stroke:none"
       d="m 15508.6,8438.05 c -9.3,0 -17.5,2.97 -22.7,10.75 -7.6,11.24 -3.8,26.32 0.5,39.16 60.9,179.98 182.7,337.65 338.1,446.34 68.8,48.19 158.5,105 241.6,123.42 8.1,1.79 22.1,2.81 38.8,2.81 71.7,0 195.1,-18.92 132.1,-78.11 -82.5,-77.35 -194.5,-113.97 -288,-177.49 -149.1,-101.36 -247.3,-268.46 -404.8,-356.14 -10.5,-5.86 -23.9,-10.74 -35.6,-10.74" />
  </g>
  <g
     transform="matrix(0.03137379,0,0,-0.03235415,-402.20664,310.57159)"
     id="g364"
     style="fill:#803300">
    <path
       id="path366"
       style="fill:#803300;fill-opacity:1;fill-rule:nonzero;stroke:none"
       d="m 16191.3,7841.44 c -48.7,0 -93.2,34.36 -117.3,77.04 -25.1,44.52 -32.1,96.76 -36.4,147.67 -11.5,133.01 -7.9,268.24 18.8,399.29 12.9,63.09 50.3,219.23 106.4,219.23 19.8,0 41.8,-19.33 65.9,-68.83 36.5,-74.68 51.1,-158.13 57.7,-240.93 13.6,-168.6 -4.4,-339.7 -52.8,-501.8 -2.6,-8.69 -5.6,-17.85 -12.5,-23.74 -6.4,-5.5 -15.2,-7.23 -23.6,-7.75 -2.1,-0.12 -4.2,-0.18 -6.2,-0.18" />
  </g>
</svg>
